<svg width="412" height="52" viewBox="0 0 412 52" fill="none" xmlns="http://www.w3.org/2000/svg">
<g clip-path="url(#clip0_86_413)">
<path d="M173.657 36.8689C171.591 36.8856 169.532 37.648 168.14 35.7947C167.793 35.4246 167.446 35.0545 167.443 34.6817C167.44 34.3088 167.437 33.9359 167.089 33.5658C166.739 32.8229 166.054 33.2013 165.021 33.2096C163.3 33.2235 162.603 32.1104 161.22 31.3758C160.181 30.6384 159.146 30.2738 158.113 30.2822C156.736 30.2933 156.054 31.0446 155.374 32.1687C154.692 32.92 154.354 33.6685 153.321 33.6768C152.977 33.6796 152.288 33.6852 151.944 33.6879C150.223 33.7018 148.502 33.7157 146.781 33.7296C145.404 33.7407 144.369 33.3761 142.992 33.3872C141.615 33.3983 140.582 33.4066 139.203 33.0449C138.855 32.6748 138.511 32.6776 138.167 32.6803C137.478 32.6859 137.478 32.6859 136.784 31.9457C136.437 31.5756 136.087 30.8326 135.398 30.8382C135.054 30.841 134.021 30.8493 133.677 30.8521C131.268 30.8715 128.861 31.2638 126.108 31.286C125.075 31.2943 124.731 31.2971 124.048 32.0484C123.366 32.7997 123.716 33.5426 123.034 34.2939C122.354 35.4181 119.598 35.0674 118.562 34.7029C114.773 34.3605 110.986 34.391 107.547 34.7917C107.203 34.7944 106.862 35.1701 106.174 35.1756C105.141 35.184 103.758 34.4493 102.725 34.4576C100.657 34.1014 97.8944 33.005 96.1855 34.5104C95.8442 34.886 96.1944 35.629 95.8533 36.0046C95.509 36.0074 94.4764 36.0157 94.4764 36.0157C94.1322 36.0185 93.791 36.3941 93.4468 36.3969C92.4142 36.4052 91.7287 36.7837 90.6961 36.792C88.9751 36.8059 87.254 36.8197 85.533 36.8336C84.1562 36.8447 82.7823 37.2287 81.0642 37.6154C80.3759 37.621 79.6874 37.6265 79.3462 38.0022C78.6638 38.7535 79.014 39.4964 77.9844 39.8776C77.6403 39.8804 76.6076 39.8887 76.2634 39.8915C75.575 39.897 74.5423 39.9054 73.8509 39.538C73.5067 39.5408 73.5037 39.1679 73.5037 39.1679C73.1595 39.1707 73.1595 39.1707 72.8153 39.1735C71.4355 38.8117 70.3908 37.3286 69.3552 36.964C67.9723 36.2294 66.5955 36.2405 65.2156 35.8787C63.4916 35.5197 61.7615 34.415 59.6963 34.4317C57.2868 34.4511 54.8744 34.0976 52.4619 33.7442C51.7735 33.7497 51.4293 33.7525 50.7408 33.7581C49.364 33.7692 48.6755 33.7747 47.6369 33.0373C46.9455 32.67 46.2571 32.6755 45.5657 32.3082C45.2215 32.311 45.2184 31.9381 44.8743 31.9409L44.53 31.9437C44.53 31.9437 44.1858 31.9465 44.1888 32.3193C43.5034 32.6977 42.815 32.7033 42.1266 32.7088C41.4382 32.7144 40.7528 33.0928 40.4086 33.0956C40.0643 33.0984 40.0673 33.4712 39.7231 33.474C39.3789 33.4768 38.6905 33.4823 38.3463 33.4851C37.6579 33.4907 36.9725 33.8691 36.6313 34.2447C35.2484 33.5101 34.2158 33.5184 33.1832 33.5267C32.4948 33.5323 31.8063 33.5378 31.4621 33.5406C30.7707 33.1733 30.0793 32.806 29.3908 32.8115C28.3612 33.1927 28.026 34.3141 27.3466 35.4383C27.0055 35.8139 27.3497 35.8111 26.6643 36.1895C25.9758 36.1951 25.2874 36.2006 24.9432 36.2034C23.2222 36.2173 21.8423 35.8555 20.4625 35.4938C18.7384 35.1348 16.6701 34.7785 14.9491 34.7924C13.225 34.4334 11.501 34.0744 9.43578 34.0911C7.71474 34.105 6.34989 35.6075 4.62884 35.6214C2.56661 36.0109 -0.190061 35.6603 -1.92012 34.5555C-2.26733 34.1854 -2.95879 33.8181 -3.30301 33.8209C-3.99141 33.8264 -4.3356 33.8292 -4.67983 33.832C-6.05364 34.216 -7.77769 33.857 -9.15454 33.8681C-10.1872 33.8764 -11.2198 33.8847 -12.2524 33.893C-12.9408 33.8986 -13.6292 33.9041 -14.3177 33.9097C-14.6619 33.9125 -14.3177 33.9097 -15.0091 33.5424C-15.7005 33.1751 -16.392 32.8077 -17.0804 32.8133C-19.8371 32.4626 -22.2525 31.7363 -25.0092 31.3856C-26.389 31.0239 -27.4216 31.0322 -28.4543 31.0405C-29.1427 31.0461 -30.5256 30.3114 -31.2109 30.6899C-32.2376 31.4439 -31.8813 32.9326 -32.2195 33.6811C-32.5487 35.5482 -33.5814 35.5566 -34.9612 35.1948C-36.6852 34.8358 -38.0711 33.7283 -39.7891 34.115C-40.8187 34.4962 -41.8454 35.2503 -42.878 35.2586C-44.2548 35.2697 -45.2904 34.9052 -46.6673 34.9163C-47.6999 34.9246 -48.7325 34.9329 -49.424 34.5656C-50.8068 33.831 -51.8455 33.0936 -53.5665 33.1074C-54.5991 33.1158 -55.6317 33.1241 -56.6644 33.1324C-59.0738 33.1518 -60.4507 33.1629 -62.5069 34.2982C-63.1923 34.6766 -63.5335 35.0523 -64.222 35.0578C-65.5988 35.0689 -66.9816 34.3343 -68.0173 33.9697C-68.7087 33.6024 -69.7383 33.9836 -70.4297 33.6163C-71.1211 33.249 -71.4684 32.8789 -72.1568 32.8844C-72.8452 32.89 -73.5336 32.8955 -74.5693 32.531C-75.2607 32.1637 -75.6079 31.7936 -76.2993 31.4263C-76.6435 31.429 -77.6761 31.4374 -77.6792 31.0645C-78.7118 31.0728 -79.4032 30.7055 -80.4359 30.7138C-82.1539 31.1006 -83.5187 32.6031 -84.8895 33.36C-86.6015 34.4925 -87.6282 35.2465 -89.6934 35.2632C-91.0702 35.2743 -92.1029 35.2826 -93.4797 35.2937C-94.8566 35.3048 -95.8892 35.3131 -97.269 34.9514C-98.6489 34.5896 -99.6785 34.9708 -101.058 34.609C-101.75 34.2417 -102.444 33.5015 -103.136 33.1342C-103.824 33.1397 -104.512 33.1453 -104.857 33.1481C-105.545 33.1536 -106.578 33.1619 -107.266 33.1675C-107.955 33.173 -108.987 33.1814 -109.676 33.1869C-110.708 33.1952 -110.705 33.5681 -111.391 33.9465C-113.106 34.7061 -115.515 34.7256 -117.58 34.7422C-118.613 34.7505 -119.304 34.3832 -120.337 34.3915C-121.37 34.3999 -122.058 34.4054 -123.091 34.4137C-124.812 34.4276 -126.533 34.4415 -128.254 34.4554C-129.286 34.4637 -130.319 34.472 -131.346 35.2261C-132.028 35.9774 -132.366 36.7259 -133.399 36.7342C-134.087 36.7398 -134.432 36.7425 -135.12 36.7481C-137.874 36.7703 -140.975 36.4224 -143.381 36.8147C-144.069 36.8202 -144.752 37.5715 -145.437 37.9499C-146.123 38.3284 -147.155 38.3367 -147.844 38.3422C-148.532 38.3478 -149.562 38.729 -150.253 38.3617C-150.6 37.9916 -151.298 36.8785 -151.645 36.5084C-153.375 35.4037 -154.74 36.9063 -156.808 36.55C-157.844 36.1855 -157.85 35.4398 -158.541 35.0725C-160.603 35.462 -160.951 35.0919 -161.639 35.0974C-162.331 34.7301 -162.678 34.36 -163.707 34.7412C-165.081 35.1252 -166.102 36.625 -167.125 37.7519C-167.47 37.7547 -167.817 37.3846 -168.164 37.0145C-168.511 36.6444 -169.2 36.65 -169.885 37.0284C-170.577 36.6611 -170.583 35.9153 -171.274 35.548C-171.618 35.5508 -172.307 35.5563 -172.654 35.1862C-173.345 34.8189 -174.378 34.8272 -175.069 34.4599C-176.102 34.4682 -177.134 34.4766 -178.167 34.4849C-178.511 34.4877 -179.544 34.496 -179.888 34.4988C-180.232 34.5015 -180.238 33.7558 -180.586 33.3857C-180.936 32.6427 -182.316 32.281 -183.007 31.9137C-184.393 30.8062 -186.455 31.1957 -188.179 30.8367C-188.523 30.8395 -188.526 30.4666 -188.871 30.4694C-189.559 30.4749 -190.589 30.8561 -191.28 30.4888L-191.624 30.4916C-192.319 29.7514 -192.669 29.0084 -193.019 28.2655C-193.717 27.1524 -194.402 27.5308 -195.776 27.9148C-197.835 28.6772 -199.891 29.8124 -201.256 31.315C-201.253 31.6879 -201.936 32.4392 -202.621 32.8176C-202.965 32.8204 -202.965 32.8204 -203.312 32.4503C-203.66 32.0802 -204.01 31.3372 -204.357 30.9671C-205.396 30.2297 -206.77 30.6137 -207.799 30.9949C-209.173 31.3788 -210.203 31.76 -211.232 32.1412C-212.606 32.5252 -213.986 32.1634 -215.019 32.1717C-216.051 32.1801 -216.398 31.81 -217.434 31.4454C-219.849 30.7191 -222.6 31.1142 -225.007 31.5065C-226.725 31.8932 -227.757 31.9016 -229.134 31.9127C-229.823 31.9182 -231.202 31.5564 -231.888 31.9349C-232.229 32.3105 -232.226 32.6834 -232.567 33.059C-232.905 33.8075 -233.25 33.8103 -233.935 34.1887C-234.962 34.9428 -235.991 35.324 -237.021 35.7052C-238.05 36.0864 -239.43 35.7246 -240.807 35.7357C-242.531 35.3767 -244.593 35.7662 -246.314 35.7801C-247.347 35.7884 -248.036 35.794 -249.065 36.1752C-249.751 36.5536 -250.439 36.5591 -251.124 36.9376C-252.842 37.3243 -254.222 36.9625 -255.943 36.9764C-256.976 36.9847 -258.353 36.9958 -259.385 37.0042C-260.421 36.6396 -261.112 36.2723 -262.145 36.2806C-264.558 35.9272 -267.326 34.085 -270.071 35.2258C-270.756 35.6043 -271.098 35.9799 -271.442 35.9827C-271.786 35.9855 -272.474 35.991 -272.819 35.9938C-274.195 36.0049 -275.225 36.3861 -276.252 37.1401C-277.622 37.897 -278.652 38.2782 -279.676 39.4051C-280.017 39.7807 -280.705 39.7863 -282.082 39.7974C-283.115 39.8057 -283.803 39.8113 -284.833 40.1925C-285.518 40.5709 -285.862 40.5737 -286.207 40.5764C-287.583 40.5875 -289.308 40.2285 -290.684 40.2396C-292.75 40.2563 -293.791 39.146 -295.521 38.0413C-296.213 37.674 -296.901 37.6795 -297.937 37.315C-298.281 37.3177 -298.631 36.5748 -298.975 36.5775C-300.011 36.213 -301.385 36.597 -302.073 36.6025C-305.171 36.6275 -308.266 37.0253 -311.367 36.6775C-312.744 36.6886 -313.785 35.5783 -315.165 35.2165C-318.266 34.8686 -321.029 33.7722 -324.13 33.4243C-326.542 33.0709 -328.952 33.0903 -331.349 34.6012C-332.035 34.9796 -332.373 35.7281 -333.058 36.1065C-334.432 36.4905 -336.497 36.5072 -337.874 36.5183C-341.31 37.2918 -344.746 38.0652 -348.188 38.093C-349.221 38.1013 -350.598 38.1124 -351.639 37.0021C-352.675 36.6376 -352.681 35.8919 -354.061 35.5301C-356.473 35.1766 -360.942 35.9585 -362.648 37.8367C-363.672 38.9636 -364.007 40.085 -364.686 41.2091C-365.027 41.5848 -364.683 41.582 -365.372 41.5876C-365.713 41.9632 -367.437 41.6042 -368.125 41.6098C-368.814 41.6153 -370.191 41.6264 -370.876 42.0048C-371.903 42.7589 -373.267 44.2615 -374.647 43.8997C-376.027 43.5379 -377.069 42.4276 -378.446 42.4388C-380.167 42.4526 -381.202 42.0881 -382.929 41.3562C-384.309 40.9945 -386.033 40.6355 -387.41 40.6466C-389.475 40.6632 -391.196 40.6771 -393.262 40.6937C-397.736 40.7298 -401.855 42.2546 -406.33 42.2907C-407.362 42.299 -408.392 42.6802 -409.424 42.6885C-411.49 42.7052 -413.902 42.3517 -415.964 42.7412C-417.682 43.128 -419.394 44.2605 -420.765 45.0173C-421.451 45.3957 -422.477 46.1498 -423.166 46.1553C-423.51 46.1581 -423.854 46.1609 -424.198 46.1636C-424.884 46.5421 -425.225 46.9177 -425.91 47.2961C-426.596 47.6745 -427.625 48.0557 -428.314 48.0613C-431.068 48.0835 -433.815 48.8514 -436.569 48.8736C-439.323 48.8958 -438.263 52.2433 -441.016 52.2655C-442.049 52.2739 -443.082 52.2822 -444.114 52.2905C-444.803 52.2961 -445.144 52.6717 -445.832 52.6772C-446.177 52.68 -446.521 52.6828 -446.865 52.6856C-447.553 52.6911 -447.55 53.064 -448.239 53.0695C-449.271 53.0779 -449.96 53.0834 -450.993 53.0917C-451.681 53.0973 -452.022 53.4729 -452.363 53.8486C-453.393 54.2298 -454.459 50.1365 -455.491 50.1449C-456.524 50.1532 -457.557 50.1615 -458.589 50.1698C-459.278 50.1754 -460.337 46.8279 -461.029 46.4606C-462.067 45.7232 -463.471 42.3785 -464.504 42.3868C-465.536 42.3951 -466.225 42.4007 -467.258 42.409C-467.946 42.4145 -468.637 42.0472 -469.32 42.7985C-471.026 44.6767 -470.328 45.7898 -472.744 45.0635C-473.088 45.0662 -473.782 44.3261 -474.471 44.3316C-475.507 43.9671 -476.198 43.5997 -477.231 43.6081C-477.575 43.6108 -481.394 39.5398 -481.394 39.5398L-481.605 13.439C-481.26 13.4362 -480.207 16.038 -479.862 16.0352C-478.827 16.3998 -477.785 17.51 -476.75 17.8746C-476.055 18.6148 -475.364 18.9821 -474.334 18.6009C-472.272 18.2114 -471.931 17.8357 -469.515 18.5621C-469.171 18.5593 -468.48 18.9266 -468.132 19.2967C-467.1 19.2884 -466.061 20.0258 -464.681 20.3875C-462.957 20.7465 -463.304 20.3764 -462.275 19.9952C-460.904 19.2384 -459.174 20.3431 -457.797 20.332C-457.109 20.3265 -455.729 20.6883 -455.043 20.3098C-454.355 20.3043 -454.017 19.5558 -453.673 19.553C-452.987 19.1746 -451.952 19.5391 -450.919 19.5308C-449.545 19.1468 -447.83 18.3872 -446.45 18.749C-445.073 18.7379 -443.349 19.0969 -441.966 19.8315C-441.619 20.2016 -441.272 20.5717 -440.584 20.5662C-440.236 20.9362 -439.548 20.9307 -439.204 20.9279C-438.512 21.2952 -438.168 21.2925 -437.48 21.2869C-436.791 21.2814 -435.411 21.6431 -435.073 20.8946C-434.732 20.519 -434.741 19.4004 -434.056 19.022C-433.029 18.2679 -431.649 18.6297 -430.617 18.6213C-427.866 18.2263 -425.112 18.2041 -422.368 17.0633C-421.682 16.6848 -419.632 14.8038 -418.596 15.1684C-418.252 15.1656 -417.905 15.5357 -417.902 15.9086C-416.866 16.2731 -416.178 16.2676 -415.145 16.2592C-413.424 16.2454 -411.7 16.6044 -409.632 16.9606C-408.255 16.9495 -406.531 17.3085 -405.157 16.9245C-404.128 16.5433 -403.789 15.7948 -403.107 15.0435C-402.425 14.2922 -402.428 13.9194 -401.398 13.5382C-400.709 13.5326 -400.021 13.5271 -398.988 13.5187C-398.3 13.5132 -397.27 13.132 -396.582 13.1264C-395.894 13.1209 -395.208 12.7425 -394.517 13.1098C-394.17 13.4799 -393.822 13.85 -393.819 14.2228C-393.469 14.9658 -393.466 15.3387 -392.778 15.3331C-392.089 15.3276 -391.06 14.9464 -390.371 14.9408C-389.683 14.9353 -388.994 14.9297 -388.65 14.927C-387.962 14.9214 -387.959 15.2943 -387.273 14.9159C-386.929 14.9131 -386.588 14.5374 -385.899 14.5319C-384.87 14.1507 -384.184 13.7723 -383.499 13.3939C-382.469 13.0127 -381.781 13.0071 -380.404 12.996C-378.683 12.9821 -376.962 12.9683 -375.585 12.9572C-374.208 12.9461 -372.835 12.5621 -371.802 12.5538C-371.458 12.551 -371.111 12.9211 -370.766 12.9183C-370.422 12.9155 -370.081 12.5399 -369.74 12.1643C-368.71 11.7831 -368.369 11.4074 -368.031 10.6589C-368.034 10.286 -368.037 9.91316 -367.692 9.91039C-367.004 9.90484 -366.998 10.6506 -366.307 11.0179C-365.268 11.7553 -365.609 12.1309 -364.577 12.1226C-363.888 12.1171 -363.197 12.4844 -362.508 12.4788C-361.128 12.8406 -359.749 13.2024 -358.369 13.5641C-357.333 13.9287 -356.642 14.296 -355.947 15.0362C-354.912 15.4007 -353.885 14.6467 -353.2 14.2683C-352.17 13.8871 -351.14 13.5059 -349.764 13.4948C-347.013 13.0997 -343.574 12.6991 -341.152 14.1711C-339.769 14.9058 -339.416 16.0216 -338.042 15.6376C-335.98 15.2481 -334.615 13.7455 -332.55 13.7289C-331.517 13.7206 -330.485 13.7122 -329.452 13.7039C-328.764 13.6984 -327.39 13.3144 -326.699 13.6817C-325.663 14.0463 -325.651 15.5377 -324.271 15.8995C-323.927 15.8967 -323.583 15.8939 -323.238 15.8912C-322.897 15.5155 -322.556 15.1399 -321.871 14.7615C-320.847 13.6345 -318.788 12.8721 -317.411 12.861C-316.722 12.8555 -316.037 12.4771 -315.349 12.4715C-314.316 12.4632 -313.628 12.4577 -312.595 12.4493C-312.251 12.4466 -311.907 12.4438 -311.565 12.0681L-311.224 11.6925C-310.539 11.3141 -309.506 11.3057 -308.815 11.6731C-308.806 12.7917 -307.767 13.5291 -307.076 13.8964C-306.728 14.2665 -306.728 14.2665 -306.04 14.2609C-305.007 14.2526 -303.975 14.2443 -302.945 13.8631C-301.915 13.4819 -301.233 12.7306 -300.548 12.3522C-298.836 11.2197 -298.851 9.35537 -297.486 7.8528C-297.145 7.47716 -296.45 8.21734 -296.1 8.96031C-295.4 10.4462 -293.676 10.8052 -292.293 11.5399C-290.554 13.7632 -288.839 13.0036 -287.112 13.7354C-285.387 14.0944 -283.66 14.8263 -281.595 14.8096C-280.907 14.8041 -280.218 14.7985 -279.186 14.7902C-278.497 14.7847 -278.156 14.409 -277.812 14.4063C-277.468 14.4035 -276.779 14.3979 -276.435 14.3952C-276.438 14.0223 -276.441 13.6494 -276.441 13.6494C-276.444 13.2765 -276.103 12.9009 -276.106 12.528C-275.765 12.1524 -275.768 11.7795 -275.771 11.4067C-275.774 11.0338 -275.426 11.4039 -275.432 10.6581C-275.091 10.2825 -274.747 10.2797 -274.059 10.2742C-273.37 10.2686 -273.032 9.52011 -272.344 9.51456C-270.623 9.50069 -269.228 11.7268 -267.842 12.8343C-266.803 13.5717 -266.109 14.3119 -265.414 15.0521C-264.373 16.1624 -264.031 15.7867 -263.699 14.2925C-263.364 13.1711 -263.029 12.0497 -262.35 10.9256C-262.008 10.5499 -262.362 9.43408 -261.673 9.42853C-260.985 9.42298 -260.619 12.0303 -259.928 12.3976C-259.237 12.7649 -258.207 12.3837 -257.519 12.3782C-256.142 12.3671 -255.456 11.9887 -254.082 11.6047C-253.05 11.5964 -252.02 11.2152 -250.991 10.834C-250.646 10.8312 -249.961 10.4528 -249.961 10.4528C-249.62 10.0771 -249.279 9.7015 -249.282 9.32863C-248.94 8.95299 -248.258 8.2017 -248.264 7.45596C-247.579 7.07755 -247.585 6.33181 -247.243 5.95617C-246.217 5.2021 -244.133 7.42266 -243.436 8.53572C-242.742 9.27591 -242.397 9.27313 -241.706 9.64045C-239.291 10.3668 -236.534 10.7174 -233.78 10.6952C-232.748 10.6869 -232.4 11.057 -231.718 10.3057L-231.721 9.93284C-231.721 9.93284 -231.377 9.93007 -231.032 9.92729C-230 9.91897 -228.97 9.53777 -227.941 9.15658C-227.255 8.77816 -226.576 7.654 -225.543 7.64568C-224.858 7.26726 -224.163 8.00745 -223.472 8.37476C-222.439 8.36644 -221.062 8.35534 -220.03 8.34701C-218.997 8.33869 -217.962 8.70323 -216.929 8.69491C-215.205 9.0539 -213.481 9.41289 -211.76 9.39902C-210.039 9.38514 -208.659 9.74691 -207.279 10.1087C-206.591 10.1031 -205.555 10.4677 -204.525 10.0865C-203.837 10.0809 -204.178 10.4566 -204.175 10.8294C-204.172 11.2023 -203.819 12.3181 -203.137 11.5669C-203.137 11.5669 -203.137 11.5669 -203.14 11.194C-202.442 12.307 -201.751 12.6744 -200.374 12.6633C-198.997 12.6522 -198.312 12.2737 -197.632 11.1496C-196.95 10.3983 -196.27 9.27414 -195.241 8.89295C-194.555 8.51453 -193.52 8.87907 -192.831 8.87352C-191.799 8.86519 -190.763 9.22974 -189.724 9.96715C-189.377 10.3372 -188.689 10.3317 -188.345 10.3289C-187.312 10.3206 -187.318 9.57486 -187.671 8.45903C-187.677 7.71329 -187.336 7.33764 -186.303 7.32932C-184.579 7.68831 -183.187 9.54155 -181.802 10.6491C-180.763 11.3865 -179.727 11.751 -178.695 11.7427C-178.006 11.7371 -176.974 11.7288 -175.941 11.7205C-174.561 12.0823 -174.546 13.9466 -173.849 15.0597C-172.801 16.9157 -170.76 13.9161 -168.695 13.8994C-168.006 13.8939 -166.947 17.2414 -166.261 16.8629C-164.54 16.8491 -163.169 16.0922 -163.187 13.855C-163.199 12.3635 -163.903 10.5048 -162.879 9.37783C-162.197 8.62654 -160.461 10.477 -159.425 10.8415C-158.386 11.579 -158.033 12.6948 -156.995 13.4322C-155.953 14.5425 -155.609 14.5397 -154.573 14.9043C-153.537 15.2688 -152.496 16.3791 -151.801 17.1193C-151.107 17.8594 -150.095 15.241 -149.06 15.6056C-148.368 15.9729 -147.677 16.3402 -146.988 16.3347C-145.606 17.0693 -144.896 19.6738 -144.217 18.5497C-144.226 17.4311 -143.546 16.3069 -143.208 15.5584C-142.87 14.8099 -142.879 13.6913 -142.541 12.9428C-142.203 12.1943 -142.544 12.5699 -141.855 12.5644L-141.511 12.5616C-140.823 12.556 -140.134 12.5505 -139.099 12.915C-138.41 12.9095 -138.066 12.9067 -137.719 13.2768C-137.372 13.6469 -137.369 14.0198 -137.024 14.017C-136.677 14.3871 -136.333 14.3843 -135.989 14.3815C-133.573 15.1078 -130.149 12.8429 -128.413 14.6933C-127.719 15.4335 -129.081 17.309 -128.386 18.0492C-126.309 19.524 -123.923 16.5216 -121.514 16.5022C-120.137 16.4911 -119.104 16.4828 -117.731 16.0988C-117.045 15.7204 -116.357 15.7148 -116.013 15.712C-115.327 15.3336 -114.298 14.9524 -113.612 14.574C-113.268 14.5712 -112.583 14.1928 -112.583 14.1928C-112.583 14.1928 -112.586 13.82 -112.589 13.4471C-112.25 12.6986 -111.206 14.1817 -110.858 14.5518C-110.511 14.9219 -110.511 14.9219 -110.164 15.292C-109.122 16.4023 -107.746 16.3912 -106.713 16.3829C-106.025 16.3773 -104.648 16.3662 -104.294 17.482C-103.947 17.8521 -103.262 17.4737 -102.573 17.4682C-101.541 17.4598 -100.164 17.4487 -99.1344 17.0675C-97.4133 17.0537 -95.6923 17.0398 -93.9712 17.0259C-92.9386 17.0176 -90.5291 16.9982 -89.8497 15.874C-89.5115 15.1255 -89.5115 15.1255 -88.8261 14.7471C-88.1407 14.3687 -87.7965 14.3659 -86.7639 14.3576C-86.0755 14.352 -85.0398 14.7166 -84.0102 14.3354C-83.3218 14.3298 -82.9806 13.9542 -82.2952 13.5757C-81.2655 13.1946 -80.5831 12.4433 -79.5535 12.0621C-78.8651 12.0565 -78.8651 12.0565 -78.5179 12.4266C-77.4823 12.7912 -76.7938 12.7856 -75.7582 13.1502C-74.7226 13.5147 -74.0251 14.6278 -72.9865 15.3652C-72.6393 15.7353 -71.6067 15.7269 -70.9182 15.7214C-69.5384 16.0831 -68.5058 16.0748 -67.1229 16.8095C-65.7401 17.5441 -64.016 17.9031 -62.6392 17.892C-62.295 17.8892 -61.9508 17.8864 -61.6066 17.8837C-60.5769 17.5025 -59.8976 16.3783 -59.2121 15.9999C-58.8709 15.6243 -58.5267 15.6215 -58.5327 14.8757C-58.5357 14.5029 -58.5387 14.13 -58.5447 13.3843C-58.2005 13.3815 -57.8563 13.3787 -57.5121 13.3759C-56.1353 13.3648 -55.1026 13.3565 -53.7258 13.3454C-53.3816 13.3426 -52.0078 12.9587 -51.6606 13.3288C-51.3164 13.326 -51.6576 13.7016 -51.3103 14.0717C-51.3073 14.4446 -50.9601 14.8147 -50.6129 15.1848C-49.5743 15.9222 -48.5447 15.541 -47.8592 15.1626C-47.1738 14.7842 -46.4884 14.4057 -45.4558 14.3974C-44.7674 14.3919 -44.4262 14.0162 -43.7348 14.3835C-43.0463 14.378 -42.3549 14.7453 -41.3223 14.737C-40.6338 14.7314 -40.2867 15.1015 -39.5982 15.096C-39.2541 15.0932 -39.257 14.7203 -39.257 14.7203C-38.9128 14.7176 -38.5686 14.7148 -38.2244 14.712C-37.539 14.3336 -37.8892 13.5906 -37.8922 13.2178C-37.8982 12.472 -37.8952 12.8449 -37.554 12.4693C-37.557 12.0964 -37.2158 11.7207 -37.2188 11.3479C-36.8776 10.9722 -36.5394 10.2237 -36.1982 9.84807C-34.4832 9.08846 -32.7532 10.1932 -31.0291 10.5522C-30.3377 10.9195 -29.9935 10.9167 -29.299 11.6569C-28.9518 12.027 -28.2604 12.3943 -27.9131 12.7644C-27.2187 13.5046 -27.2157 13.8775 -26.1801 14.242C-25.4917 14.2365 -25.1475 14.2337 -24.456 14.601C-24.1118 14.5982 -23.4204 14.9656 -23.0792 14.5899C-22.3908 14.5844 -22.0526 13.8358 -21.3642 13.8303C-20.3346 13.4491 -19.2989 13.8136 -18.2693 13.4325C-17.9251 13.4297 -17.9281 13.0568 -17.5839 13.054C-16.5543 12.6728 -15.8628 13.0402 -15.1714 13.4075C-13.7916 13.7692 -12.0735 13.3825 -10.6967 13.3714C-10.0083 13.3659 -8.97565 13.3575 -8.28726 13.352C-7.59883 13.3464 -6.91038 13.3409 -6.22797 12.5896C-5.88678 12.2139 -5.54559 11.8383 -4.85719 11.8328C-4.16877 11.8272 -4.16573 12.2001 -3.81853 12.5702C-3.47133 12.9403 -3.12713 12.9375 -2.4357 13.3048C-1.74427 13.6721 -1.05588 13.6666 -0.023257 13.6582C0.665167 13.6527 1.69785 13.6444 2.38327 13.2659C2.72446 12.8903 2.72443 12.8903 3.40984 12.5119C4.09523 12.1335 3.75404 12.5091 4.43946 12.1307C5.12487 11.7523 4.43645 11.7578 5.12487 11.7523C5.46907 11.7495 6.15753 11.7439 6.50172 11.7412C7.19015 11.7356 8.56399 11.3517 9.25542 11.719C9.94685 12.0863 10.6382 12.4536 10.9825 12.4508C12.0181 12.8154 13.0477 12.4342 14.0803 12.4259C15.4541 12.0419 16.4868 12.0336 17.8606 11.6496C18.8903 11.2684 19.9199 10.8872 21.2967 10.8761C22.3263 10.4949 24.3856 9.73253 24.7388 10.8484C25.4362 11.9614 26.4689 11.9531 27.1603 12.3204C28.5401 12.6822 29.2195 11.558 30.5933 11.174C31.6229 10.7929 32.6586 11.1574 33.6912 11.1491C35.7564 11.1324 37.8187 10.7429 39.5427 11.1019C40.2311 11.0963 40.5784 11.4664 40.9256 11.8365C41.9672 12.9468 43.0059 13.6842 44.727 13.6704C45.0711 13.6676 45.4153 13.6648 46.1038 13.6592C46.7922 13.6537 47.4776 13.2753 48.5073 12.8941C49.1926 12.5157 49.881 12.5101 50.2223 12.1345C50.2223 12.1345 50.2193 11.7616 50.5635 11.7588C51.2489 11.3804 51.5961 11.7505 51.9373 11.3749L51.9343 11.002C51.9343 11.002 52.6197 10.6236 52.9639 10.6208C54.6819 10.2341 56.409 10.9659 57.7768 9.83621C58.118 9.46057 58.4622 9.45779 59.1477 9.07938C59.8361 9.07383 60.5245 9.06828 61.2159 9.43559C61.9073 9.80291 62.9369 9.42172 63.6283 9.78904C63.6434 11.6534 66.0468 10.8882 67.0795 10.8799C68.4563 10.8688 69.4769 9.36899 70.5125 9.73354C70.8567 9.73076 71.5481 10.0981 72.2396 10.4654C72.5868 10.8355 72.931 10.8327 73.2782 11.2028C74.3169 11.9402 75.0053 11.9347 76.3822 11.9236C77.4148 11.9152 78.4474 11.9069 79.48 11.8986C80.5127 11.8903 81.5453 11.8819 82.2337 11.8764C83.2663 11.8681 83.9517 11.4896 84.9814 11.1085C85.6698 11.1029 86.014 11.1001 86.6994 10.7217C87.3848 10.3433 88.0732 10.3377 88.7617 10.3322C89.45 10.3266 90.4767 9.57258 91.5063 9.19139C92.5359 8.81019 93.5716 9.17474 94.9454 8.79077C95.978 8.78244 96.3223 8.77967 97.0137 9.14699C99.0849 9.87607 101.147 9.48655 103.218 10.2156C103.91 10.583 104.26 11.3259 104.951 11.6932C105.99 12.4307 107.367 12.4195 108.744 12.4084C110.124 12.7702 111.5 12.7591 113.222 12.7452C115.287 12.7286 116.652 11.226 118.711 10.4636C119.74 10.0824 121.12 10.4442 122.153 10.4359C123.186 10.4276 123.868 9.67627 124.898 9.29507C125.239 8.91943 125.924 8.54101 126.265 8.16537C127.636 7.40853 129.36 7.76752 130.734 7.38355C132.452 6.99681 134.853 5.85878 136.583 6.96351C137.621 7.70092 138.325 9.55971 139.705 9.92148C141.432 10.6533 143.156 11.0123 144.541 12.1198C145.924 12.8545 146.269 12.8517 147.642 12.4677C149.016 12.0838 151.088 12.8129 152.461 12.4289C152.806 12.4261 153.147 12.0505 153.488 11.6748C153.829 11.2992 154.173 11.2964 154.515 10.9208C155.197 10.1695 154.506 9.80215 155.538 9.79383C156.227 9.78828 156.571 9.7855 157.259 9.77995C158.292 9.77163 159.666 9.38766 160.698 9.37933C160.698 9.37933 161.387 9.37378 161.731 9.37101C162.078 9.7411 162.081 10.114 162.428 10.4841C162.776 10.8542 163.464 10.8486 164.152 10.8431C165.185 10.8347 166.218 10.8264 167.595 10.8153C168.627 10.807 170.007 11.1687 170.695 11.1632C171.384 11.1576 171.722 10.4091 172.413 10.7765C172.761 11.1465 172.761 11.1465 173.108 11.5166C173.452 11.5139 174.14 11.5083 174.826 11.1299C176.2 10.7459 177.58 11.1077 178.956 11.0966C181.025 11.4528 182.743 11.0661 184.805 10.6766C186.179 10.2926 187.556 10.2815 188.585 9.90029C188.926 9.52465 189.612 9.14623 189.959 9.51632C190.651 9.88364 190.998 10.2537 191.348 10.9967C191.695 11.3668 191.357 12.1153 191.704 12.4854C192.051 12.8555 192.396 12.8527 192.743 13.2228C193.087 13.22 193.431 13.2173 193.775 13.2145C194.12 13.2117 194.123 13.5846 194.467 13.5818C195.155 13.5762 195.493 12.8277 195.835 12.4521C196.864 12.0709 197.894 11.6897 198.927 11.6814C199.956 11.3002 200.983 10.5461 202.012 10.1649C202.354 9.78929 204.416 9.39977 205.104 9.39422C204.766 10.1427 205.125 12.0043 205.473 12.3744C205.82 12.7445 205.817 12.3716 206.164 12.7417C206.508 12.7389 206.511 13.1118 206.855 13.109C207.891 13.4736 209.265 13.0896 210.645 13.4514C212.025 13.8131 213.404 14.1749 215.125 14.161C216.158 14.1527 216.843 13.7743 217.873 13.3931C218.903 13.0119 219.585 12.2606 219.92 11.1392C219.917 10.7664 220.255 10.0179 220.6 10.0151C220.944 10.0123 221.288 10.0095 221.635 10.3796C222.671 10.7442 223.356 10.3657 224.048 10.7331C224.395 11.1032 225.086 11.4705 225.434 11.8406C226.125 12.2079 226.475 12.9508 227.167 13.3182C228.205 14.0556 229.238 14.0473 230.271 14.0389C231.647 14.0278 232.324 12.5308 233.701 12.5197C234.389 12.5142 234.736 12.8842 235.419 12.133C235.76 11.7573 235.41 11.0144 235.754 11.0116C236.095 10.6359 236.783 10.6304 237.472 10.6248C238.846 10.2409 240.22 9.8569 241.941 9.84302C243.317 9.83192 245.386 10.1881 246.754 9.05843C247.095 8.68279 247.092 8.30992 247.433 7.93428C247.777 7.9315 248.81 7.92318 249.498 7.91763C250.531 7.9093 251.219 7.90375 252.255 8.2683C253.29 8.63284 253.988 9.74589 255.021 9.73757C255.709 9.73202 256.397 9.72647 256.742 9.72369C257.43 9.71814 258.121 10.0855 258.469 10.4556C258.816 10.8256 259.507 11.193 259.855 11.5631L260.202 11.9332C260.893 12.3005 261.917 11.1735 262.611 11.9137C263.309 13.0268 264.682 12.6428 265.033 13.3858C265.033 13.3858 265.036 13.7586 265.38 13.7559C265.724 13.7531 266.068 13.7503 266.068 13.7503C267.445 13.7392 268.478 13.7309 269.855 13.7198C271.917 13.3303 273.626 11.8249 276.035 11.8055C277.068 11.7972 277.756 11.7916 278.789 11.7833C279.133 11.7805 279.48 12.1506 279.825 12.1478C280.513 12.1423 280.86 12.5124 281.549 12.5068C282.237 12.5013 283.27 12.493 283.961 12.8603C284.653 13.2276 284.659 13.9733 285.35 14.3407C285.694 14.3379 286.386 14.7052 286.386 14.7052C287.074 14.6996 287.763 14.6941 288.451 14.6885C289.484 14.6802 290.516 14.6719 291.549 14.6636C291.893 14.6608 291.893 14.6608 292.237 14.658C292.923 14.2796 292.566 12.7909 293.258 13.1582C293.602 13.1554 292.923 14.2796 292.926 14.6525C293.276 15.3954 294.305 15.0142 294.994 15.0087C295.338 15.0059 295.679 14.6303 296.023 14.6275C296.712 14.6219 296.718 15.3677 297.065 15.7378C297.412 16.1079 297.757 16.1051 298.445 16.0995C298.789 16.0968 299.133 16.094 299.478 16.0912C299.825 16.4613 300.178 17.5771 300.864 17.1987C301.549 16.8203 301.887 16.0718 302.228 15.6961C302.57 15.3205 302.914 15.3177 303.258 15.315C303.602 15.3122 304.294 15.6795 304.635 15.3039C304.976 14.9282 304.973 14.5553 305.317 14.5526C306.006 14.547 306.356 15.29 306.703 15.6601C307.394 16.0274 307.035 14.1658 307.032 13.793C307.029 13.4201 307.026 13.0472 307.37 13.0444C308.053 12.2932 309.082 11.912 310.115 11.9036C311.836 11.8898 313.901 11.8731 315.967 11.8565C316.655 11.8509 316.655 11.8509 317.346 12.2182C318.038 12.5855 318.385 12.9556 319.077 13.323C320.115 14.0604 321.148 14.052 322.525 14.0409C323.213 14.0354 323.901 14.0298 324.59 14.0243C325.967 14.0132 326.649 13.2619 328.023 12.8779C328.708 12.4995 329.053 12.4967 329.741 12.4912C330.429 12.4856 330.426 12.1128 331.112 11.7344C332.141 11.3532 333.521 11.7149 334.895 11.331C335.239 11.3282 336.269 10.947 336.613 10.9442C337.649 11.3088 338.355 13.5404 338.705 14.2834C339.056 15.0263 339.403 15.3964 340.438 15.761C340.783 15.7582 340.783 15.7582 341.127 15.7554C341.127 15.7554 341.471 15.7527 341.474 16.1255C342.51 16.4901 343.539 16.1089 344.575 16.4734C345.955 16.8352 347.676 16.8213 349.05 16.4373C350.424 16.0534 351.794 15.2965 352.824 14.9153C353.509 14.5369 354.539 14.1557 355.224 13.7773C355.566 13.4017 355.91 13.3989 356.251 13.0233C357.281 12.6421 358.316 13.0066 359.352 13.3711C359.696 13.3684 361.073 13.3573 361.764 13.7246C362.462 14.8376 363.845 15.5723 364.88 15.9368C366.26 16.2986 367.987 17.0305 369.364 17.0193C370.394 16.6382 371.765 15.8813 372.453 15.8758C373.141 15.8702 374.183 16.9805 374.53 17.3506C374.874 17.3478 374.877 17.7207 375.222 17.7179C375.569 18.088 375.913 18.0852 376.26 18.4553C376.952 18.8226 377.299 19.1927 377.984 18.8143C379.014 18.4331 379.352 17.6846 380.035 16.9333C380.717 16.182 381.405 16.1765 382.088 15.4252C383.114 14.6711 383.459 14.6684 384.491 14.66C386.898 14.2677 388.957 13.5054 391.363 13.1131C392.052 13.1075 393.087 13.4721 394.117 13.0909C394.461 13.0881 394.455 12.3423 395.144 12.3368C396.176 12.3285 396.868 12.6958 397.9 12.6875C398.933 12.6791 400.31 12.668 401.339 12.2868C402.372 12.2785 403.405 12.2702 404.44 12.6347C405.476 12.9993 406.167 13.3666 407.2 13.3583C407.891 13.7256 407.547 13.7284 408.233 13.35C411.657 11.085 416.134 11.4218 419.915 10.6455C421.977 10.256 423.692 9.49639 425.413 9.48251C426.446 9.47419 427.475 9.09299 428.505 8.7118C429.876 7.95496 430.914 8.69237 432.294 9.05414C433.674 9.41591 434.374 10.9018 435.754 11.2636C436.79 11.6281 437.82 11.247 438.852 11.2386C440.573 11.2248 442.986 11.5782 444.353 10.4485C445.039 10.0701 445.377 9.32156 446.41 9.31323C447.098 9.30768 447.787 9.30213 448.475 9.29658C449.508 9.28826 451.232 9.64725 452.261 9.26606C453.976 8.50644 455.7 8.86544 457.766 8.84879C458.454 8.84324 459.487 8.83491 460.175 8.82936C461.208 8.82104 462.243 9.18558 463.276 9.17725C463.964 9.1717 464.65 8.79328 465.338 8.78773C467.059 8.77386 468.78 8.75998 470.501 8.74611C470.846 8.74333 471.534 8.73778 471.878 8.73501C473.258 9.09678 474.982 9.45577 476.021 10.1932C477.404 10.9278 478.445 12.0381 479.828 12.7727C480.172 12.77 480.169 12.3971 480.166 12.0242C480.504 11.2757 480.846 10.9001 481.528 10.1488C482.21 9.39749 483.228 7.52482 484.258 7.14363C484.602 7.14086 485.29 7.13531 485.979 7.12976C487.697 6.74301 488.723 5.98895 490.438 5.22934C491.124 4.85092 491.468 4.84814 492.156 4.84259C492.501 4.83982 492.842 4.46417 492.842 4.46417C493.527 4.08576 493.53 4.45863 493.88 5.20159C494.578 6.31464 495.617 7.05205 496.655 7.78946C497.002 8.15956 497.691 8.15401 498.038 8.5241C498.73 8.89142 499.421 9.25874 500.109 9.25319C500.454 9.25041 500.801 9.62051 501.489 9.61496C502.184 10.3551 502.534 11.0981 503.567 11.0898C504.255 11.0842 505.287 11.0759 505.629 10.7003C506.314 10.3218 506.308 9.57611 506.646 8.82759C506.985 8.07908 508.02 8.44363 508.709 8.43808C509.397 8.43252 510.427 8.05133 511.118 8.41865C512.154 8.78319 512.507 9.89902 513.546 10.6364C514.931 11.7439 517 12.1002 518.376 12.0891C520.098 12.0752 521.816 11.6884 523.18 10.1859C523.863 9.43458 524.554 9.8019 525.59 10.1664C526.97 10.5282 528.011 11.6385 528.709 12.7515C529.756 14.6076 531.475 14.2208 532.86 15.3283C533.555 16.0685 533.899 16.0657 534.925 15.3117C535.611 14.9332 535.608 14.5604 536.293 14.182C536.635 13.8063 536.973 13.0578 537.317 13.055C538.005 13.0495 538.356 13.7924 539.041 13.414C539.382 13.0384 538.688 12.2982 539.029 11.9226C539.711 11.1713 540.409 12.2843 541.1 12.6516C542.483 13.3863 543.516 13.378 544.893 13.3669C546.269 13.3558 547.302 13.3474 548.679 13.3363C549.711 13.328 550.744 13.3197 551.78 13.6842C552.471 14.0515 552.824 15.1674 553.857 15.159C554.201 15.1563 554.89 15.1507 555.234 15.1479C555.919 14.7695 556.258 14.021 556.943 13.6426C558.996 12.1345 561.421 13.9794 563.133 12.8469C563.477 12.8441 563.474 12.4713 563.471 12.0984C563.815 12.0956 564.159 12.0928 564.504 12.0901C565.192 12.0845 565.192 12.0845 565.877 11.7061C566.219 11.3305 566.56 10.9548 566.901 10.5792C569.99 9.43558 572.094 14.2662 574.836 12.7526C575.865 12.3714 576.551 11.9929 577.58 11.6117C578.266 11.2333 578.951 10.8549 579.637 10.4765C580.325 10.4709 580.325 10.4709 581.011 10.0925C581.696 9.7141 582.384 9.70855 583.073 9.703C583.761 9.69745 584.453 10.0648 585.141 10.0592C585.485 10.0564 585.829 10.0537 586.177 10.4238C586.177 10.4238 586.524 10.7939 586.871 11.1639C587.215 11.1612 587.215 11.1612 587.559 11.1584C587.904 11.1556 588.251 11.5257 588.595 11.5229C588.939 11.5202 589.628 11.5146 589.975 11.8847C590.319 11.8819 590.666 12.252 591.355 12.2465C592.735 12.6082 594.108 12.2243 595.491 12.9589C595.838 13.329 596.527 13.3235 596.871 13.3207C597.563 13.688 598.251 13.6825 598.942 14.0498C600.319 14.0387 601.696 14.0276 602.729 14.0192C603.417 14.0137 603.761 14.0109 604.45 14.0054C605.135 13.6269 605.473 12.8784 606.159 12.5C606.844 12.1216 608.568 12.4806 609.257 12.475C609.945 12.4695 610.289 12.4667 610.981 12.834C612.016 13.1986 612.367 13.9415 613.393 13.1875C613.734 12.8118 614.076 12.4362 614.42 12.4334C614.761 12.0578 615.449 12.0522 615.791 11.6766C616.817 10.9225 616.814 10.5496 617.853 11.2871C618.544 11.6544 619.236 12.0217 619.927 12.389C619.927 12.389 620.966 13.1264 621.31 13.1237C621.654 13.1209 622.343 13.1153 622.687 13.1126C624.061 12.7286 624.728 10.113 626.455 10.8448C627.835 11.2066 629.215 11.5684 630.592 11.5573C631.624 11.5489 631.621 11.1761 631.956 10.0547C631.953 9.68181 632.292 8.9333 632.633 8.55765C632.974 8.18201 633.662 8.17646 634.351 8.17091C635.383 8.16258 636.416 8.15426 637.449 8.14593C638.481 8.13761 638.481 8.13761 639.167 7.75919C640.879 6.62671 642.256 6.61561 643.986 7.72034C645.713 8.4522 647.428 7.69259 648.448 6.19279L648.787 5.44428C649.472 5.06586 649.819 5.43595 650.514 6.17614L650.861 6.54623L651.205 6.54346C651.549 6.54068 651.552 6.91355 651.555 7.28642C652.25 8.02661 653.63 8.38837 654.662 8.38005C656.727 8.3634 658.778 6.4824 660.837 5.72002C661.181 5.71724 661.525 5.71447 661.867 5.33882C662.211 5.33605 662.208 4.96318 662.549 4.58754C663.234 4.20912 663.929 4.9493 664.617 4.94376C665.306 4.93821 666.338 4.92988 667.027 4.92433C668.059 4.916 668.397 4.16749 669.43 4.15917C670.118 4.15362 670.466 4.52371 671.157 4.89103C671.504 5.26112 671.507 5.63399 671.852 5.63122C672.543 5.99853 673.576 5.99021 674.608 5.98188C676.329 5.96801 679.427 5.94303 680.789 4.06759C681.127 3.31908 681.468 2.94343 682.501 2.93511C682.845 2.93233 683.881 3.29688 684.219 2.54836C684.56 2.17272 683.866 1.43253 684.207 1.05689C685.231 -0.0700405 686.62 1.41033 687.658 2.14774C688.697 2.88516 690.08 3.61979 691.121 4.73007C691.813 5.09739 693.202 6.57777 694.228 5.8237C694.569 5.44806 695.249 4.3239 695.246 3.95104C695.581 2.82966 695.569 1.33818 696.598 0.956988C697.284 0.57857 697.972 0.573019 698.661 0.56747C699.693 0.559144 700.729 0.923688 701.762 0.915362C702.453 1.28268 703.489 1.64722 704.171 0.895937C704.512 0.520293 704.165 0.1502 704.509 0.147424C704.854 0.144649 705.204 0.887611 705.548 0.884836C706.934 1.99234 708.652 1.6056 710.029 1.5945C711.061 1.58617 712.438 1.57507 713.468 1.19388C714.5 1.18555 715.871 0.428715 716.907 0.793258C718.975 1.14948 720.714 3.37281 722.785 4.1019L722.996 30.2027C722.652 30.2055 722.299 29.0896 721.61 29.0952C720.233 29.1063 718.856 29.1174 717.479 29.1285C716.447 29.1368 715.414 29.1451 714.379 28.7806C714.034 28.7834 713.687 28.4133 713.343 28.4161C712.996 28.046 712.31 28.4244 711.966 28.4272C710.934 28.4355 709.901 28.4438 708.871 28.825L708.53 29.2006C708.186 29.2034 707.845 29.5791 707.5 29.5818C706.815 29.9603 706.818 30.3331 706.477 30.7088C706.136 31.0844 705.789 30.7143 705.103 31.0927C704.415 31.0983 704.077 31.8468 703.391 32.2252C702.706 32.6036 702.014 32.2363 701.329 32.6147C700.64 32.6203 700.985 32.6175 700.643 32.9932C699.958 33.3716 698.925 33.3799 698.237 33.3854C697.549 33.391 696.863 33.7694 696.519 33.7722C696.175 33.775 695.83 33.7777 695.486 33.7805C694.454 33.7888 693.424 34.17 692.388 33.8055C691.7 33.811 690.323 33.8221 689.973 33.0792C689.278 32.339 689.614 31.2176 688.919 30.4774C687.875 28.9943 684.432 29.022 683.062 29.7789C682.717 29.7816 682.376 30.1573 682.032 30.1601C681.347 30.5385 681.353 31.2842 681.359 32.03C681.02 32.7785 680.685 33.8998 680.347 34.6484C680.35 35.0212 679.338 37.6396 678.303 37.2751C677.959 37.2779 677.953 36.5321 677.605 36.162C676.914 35.7947 675.884 36.1759 675.196 36.1815C674.163 36.1898 673.131 36.1981 672.442 36.2037C671.41 36.212 670.377 36.2203 669.344 36.2286C667.279 36.2453 665.546 34.7677 663.822 34.4087C661.751 33.6796 659.691 34.442 657.626 34.4586C656.594 34.467 655.214 34.1052 654.184 34.4864C652.81 34.8704 651.781 35.2516 650.407 35.6355C650.063 35.6383 650.063 35.6383 649.374 35.6438C648.689 36.0223 648.003 36.4007 647.665 37.1492C646.98 37.5276 646.639 37.9033 646.301 38.6518C645.965 39.7732 645.974 40.8918 645.639 42.0131C644.951 42.0187 644.942 40.9001 644.939 40.5272C644.586 39.4114 644.235 38.6684 643.2 38.3039C641.131 37.9477 638.378 37.9699 635.968 37.9893C633.217 38.3844 630.467 38.7794 627.707 38.0559C626.327 37.6941 624.948 37.3324 623.571 37.3435C622.538 37.3518 621.161 37.3629 620.129 37.3712C619.096 37.3795 618.06 37.015 617.728 38.5092C617.734 39.255 617.74 40.0007 617.055 40.3791C616.369 40.7575 615.334 40.393 614.304 40.7742C612.93 41.1582 611.901 41.5394 610.524 41.5505C609.491 41.5588 608.455 41.1942 607.42 40.8297C606.381 40.0923 605.346 39.7277 603.969 39.7388C603.625 39.7416 602.936 39.7472 602.592 39.7499C601.903 39.7555 601.212 39.3882 600.177 39.0236C599.144 39.032 598.111 39.0403 597.078 39.0486C596.39 39.0542 595.702 39.0597 595.013 39.0653C593.64 39.4492 592.613 40.2033 591.583 40.5845C590.898 40.9629 590.212 41.3413 589.521 40.974C588.83 40.6067 588.482 40.2366 587.788 39.4964C587.441 39.1263 587.435 38.3806 587.084 37.6376C586.737 37.2675 586.046 36.9002 585.699 36.5301C585.007 36.1628 583.975 36.1711 583.286 36.1767C582.254 36.185 582.254 36.185 581.9 35.0692C581.547 33.9533 580.862 34.3317 580.176 34.7102C579.15 35.4642 577.776 35.8482 576.743 35.8565C576.055 35.8621 575.714 36.2377 575.025 36.2433C574.681 36.246 574.681 36.246 574.337 36.2488C573.993 36.2516 573.651 36.6272 573.31 37.0029C572.622 37.0084 571.589 37.0168 570.901 37.0223C567.803 37.0473 564.705 37.0723 561.969 39.3317C561.284 39.7101 561.284 39.7101 560.598 40.0885L560.257 40.4641C559.572 40.8426 558.889 41.5939 558.204 41.9723C557.519 42.3507 557.174 42.3535 556.483 41.9861C556.139 41.9889 555.444 41.2487 555.444 41.2487C554.406 40.5113 553.711 39.7711 552.676 39.4066C552.328 39.0365 551.643 39.4149 551.64 39.0421C551.293 38.672 551.29 38.2991 550.942 37.929C549.901 36.8187 548.524 36.8298 547.147 36.8409C546.115 36.8492 545.079 36.4847 544.396 37.236C544.055 37.6116 543.714 37.9873 543.029 38.3657C542.688 38.7413 542.343 38.7441 542.002 39.1198C541.661 39.4954 541.661 39.4954 541.664 39.8683C541.326 40.6168 541.67 40.614 540.982 40.6196C539.266 41.3792 536.845 39.9071 535.118 39.1753C534.774 39.178 534.427 38.8079 534.082 38.8107C533.738 38.8135 533.735 38.4406 533.388 38.0705C533.044 38.0733 532.702 38.4489 532.361 38.8246C531.679 39.5759 530.652 40.3299 529.97 41.0812C528.934 40.7167 528.578 39.228 527.884 38.4878C527.189 37.7476 526.498 37.3803 525.809 37.3858C524.777 37.3942 524.78 37.767 524.445 38.8884C524.109 40.0098 524.121 41.5013 523.086 41.1367C521.365 41.1506 520.308 38.176 518.587 38.1899C517.554 38.1982 516.528 38.9522 515.151 38.9633C514.118 38.9717 512.738 38.6099 512.056 39.3612C511.715 39.7368 511.718 40.1097 511.377 40.4853C511.035 40.861 509.655 40.4992 509.311 40.502C508.623 40.5075 507.587 40.143 506.899 40.1485C506.555 40.1513 506.21 40.1541 505.866 40.1569C505.184 40.9082 505.54 42.3969 505.549 43.5155C503.822 42.7836 502.43 40.9304 500.7 39.8256C499.661 39.0882 498.973 39.0938 497.937 38.7292C497.246 38.3619 497.246 38.3619 496.558 38.3675C495.869 38.373 495.184 38.7514 494.495 38.757C493.121 39.1409 491.397 38.7819 489.676 38.7958C488.3 38.8069 487.261 38.0695 486.228 38.0778C485.196 38.0862 484.166 38.4674 483.475 38.1C482.439 37.7355 482.098 38.1111 481.068 38.4923C480.042 39.2464 479.006 38.8819 477.632 39.2658C476.944 39.2714 476.947 39.6442 476.264 40.3955C475.923 40.7712 474.893 41.1524 474.205 41.1579C473.861 41.1607 473.517 41.1635 473.172 41.1662C472.137 40.8017 471.095 39.6914 470.401 38.9512C469.706 38.211 468.671 37.8465 467.635 37.482C467.291 37.4847 466.599 37.1174 466.255 37.1202C465.911 37.123 465.911 37.123 465.911 37.123C465.57 37.4986 465.228 37.8742 465.231 38.2471C464.89 38.6228 463.855 38.2582 463.166 38.2638C460.413 38.286 458.003 38.3054 455.249 38.3276C453.873 38.3387 452.84 38.347 451.798 37.2367C451.451 36.8666 451.448 36.4938 450.757 36.1265C450.409 35.7564 450.412 36.1292 449.724 36.1348C448.691 36.1431 447.991 34.6572 446.958 34.6655C445.926 34.6738 445.594 36.1681 444.911 36.9194C444.229 37.6707 443.891 38.4192 443.552 39.1677C442.523 39.5489 441.475 37.6929 440.781 36.9527C440.086 36.2125 439.398 36.218 438.362 35.8535C437.327 35.489 436.629 34.3759 435.593 34.0114C434.902 33.644 434.564 34.3926 433.875 34.3981C433.531 34.4009 432.84 34.0336 432.496 34.0363C431.46 33.6718 431.113 33.3017 430.08 33.31C429.392 33.3156 428.359 33.3239 427.668 32.9566C426.976 32.5893 426.635 32.9649 425.944 32.5976C425.255 32.6031 424.217 31.8657 423.528 31.8713C422.492 31.5067 421.801 31.1394 420.768 31.1477C420.083 31.5262 419.398 31.9046 418.368 32.2858C416.994 32.6697 415.623 33.4266 414.25 33.8105C413.564 34.189 412.873 33.8216 412.184 33.8272C411.496 33.8327 411.843 34.2028 411.155 34.2084C409.437 34.5951 407.712 34.2361 405.991 34.25C403.582 34.2694 401.499 32.0489 399.442 33.1841C399.101 33.5598 399.796 34.3 399.455 34.6756C398.431 35.8025 398.096 36.9239 397.413 37.6752C396.734 38.7994 397.075 38.4237 396.039 38.0592C395.348 37.6919 394.654 36.9517 393.965 36.9572C392.933 36.9655 393.283 37.7085 392.253 38.0897C389.503 38.4848 386.698 32.1682 384.651 34.4221C383.968 35.1734 385.363 37.3995 385.028 38.5208C384.693 39.6422 383.292 36.6704 382.606 37.0488C381.921 37.4272 382.268 37.7973 381.927 38.173C381.586 38.5486 380.9 38.927 380.212 38.9326C379.179 38.9409 377.799 38.5791 376.767 38.5874C375.734 38.5958 374.702 38.6041 373.672 38.9853C372.987 39.3637 372.298 39.3693 371.269 39.7504C370.583 40.1289 369.898 40.5073 369.553 40.5101C369.209 40.5128 369.209 40.5128 368.865 40.5156C368.521 40.5184 368.521 40.5184 368.524 40.8913C368.527 41.2641 365.776 41.6592 365.432 41.662C364.744 41.6675 364.052 41.3002 363.714 42.0487C363.376 42.7972 363.397 45.4073 362.37 46.1614C361.341 46.5426 359.61 45.4378 358.575 45.0733C358.231 45.0761 357.539 44.7087 357.195 44.7115C356.504 44.3442 355.474 44.7254 354.441 44.7337C353.065 44.7448 351.688 44.7559 350.655 44.7642C349.967 44.7698 349.625 45.1454 349.281 45.1482C348.249 45.1565 346.531 45.5433 345.833 44.4302C345.486 44.0601 345.483 43.6873 345.136 43.3172C344.444 42.9499 343.753 42.5825 343.061 42.2152C342.026 41.8507 341.334 41.4834 340.299 41.1188C339.61 41.1244 338.578 41.1327 337.886 40.7654C337.198 40.7709 336.509 40.7765 335.821 40.782C334.788 40.7903 334.103 41.1688 333.07 41.1771C332.038 41.1854 331.349 41.191 330.317 41.1993C329.628 41.2048 329.284 41.2076 329.29 41.9534C329.293 42.3262 329.643 43.0692 329.302 43.4448C328.961 43.8205 327.243 44.2072 326.899 44.21C325.866 44.2183 324.836 44.5995 323.798 43.8621C322.759 43.1247 321.72 42.3873 320.682 41.6499C319.987 40.9097 319.29 39.7966 317.91 39.4349C316.53 39.0731 315.153 39.0842 313.786 40.2139C313.444 40.5895 313.103 40.9652 312.762 41.3408C312.424 42.0893 311.738 42.4678 311.4 43.2163C310.377 44.3432 310.383 45.0889 310.395 46.5804C310.401 47.3261 310.407 48.0719 310.068 48.8204C309.38 48.8259 308.686 48.0858 308.335 47.3428C307.985 46.5998 307.294 46.2325 306.599 45.4923C305.558 44.382 304.172 43.2745 303.13 42.1643C302.783 41.7942 302.085 40.6811 301.397 40.6867C300.364 40.695 300.029 41.8164 299.347 42.5677C298.664 43.3189 298.317 42.9488 297.626 42.5815C296.246 42.2198 295.216 42.601 293.84 42.6121C292.46 42.2503 291.074 41.1428 289.35 40.7838C288.317 40.7921 285.908 40.8115 285.228 41.9357C284.887 42.3113 285.234 42.6814 284.893 43.0571C284.552 43.4327 284.208 43.4355 283.863 43.4383C283.175 43.4438 282.487 43.4494 281.798 43.4549C281.11 43.4605 280.418 43.0931 279.727 42.7258C279.383 42.7286 278.694 42.7342 278.35 42.7369C277.662 42.7425 276.973 42.748 276.629 42.7508C275.944 43.1292 275.947 43.5021 275.258 43.5076C274.914 43.5104 274.226 43.516 273.878 43.1459C273.184 42.4057 272.837 42.0356 271.798 41.2982C269.721 39.8234 267.647 38.7214 265.911 36.8709C265.216 36.1308 264.869 35.7607 264.174 35.0205C262.441 33.5429 260.029 33.1894 257.964 33.2061C256.587 33.2172 255.213 33.6012 253.495 33.9879C252.121 34.3719 251.094 35.1259 249.718 35.137C247.655 35.5265 245.234 34.0545 243.169 34.0712C242.136 34.0795 241.448 34.085 240.415 34.0934C239.382 34.1017 239.038 34.1044 238.347 33.7371C238 33.367 237.655 33.3698 236.964 33.0025C235.587 33.0136 233.86 32.2817 232.489 33.0386C231.804 33.417 231.46 33.4198 230.774 33.7982C229.745 34.1794 228.721 35.3063 227.347 35.6903C227.006 36.0659 226.317 36.0715 225.973 36.0742C224.944 36.4554 223.564 36.0937 222.187 36.1048C220.466 36.1186 218.401 36.1353 216.686 36.8949C214.282 37.6601 213.271 40.2785 210.864 40.6708C210.176 40.6763 209.143 40.6846 208.452 40.3173C206.725 39.5855 204.998 38.8536 202.929 38.4974C201.894 38.1328 200.855 37.3954 199.819 37.0309C198.784 36.6663 198.098 37.0448 197.404 36.3046C194.638 34.8353 191.546 35.606 188.793 35.6282C188.104 35.6338 187.41 34.8936 187.06 34.1506C186.712 33.7805 186.712 33.7805 186.365 33.4104C186.021 33.4132 186.018 33.0403 186.018 33.0403C185.671 32.6702 185.326 32.673 185.326 32.673C184.979 32.3029 184.638 32.6786 183.95 32.6841C183.605 32.6869 182.917 32.6924 182.573 32.6952C181.884 32.7008 181.54 32.7035 180.852 32.7091C180.508 32.7119 179.819 32.7174 179.478 33.0931C179.137 33.4687 179.137 33.4687 178.796 33.8443C178.454 34.22 177.772 34.9713 177.428 34.9741C177.084 34.9768 176.739 34.9796 176.395 34.9824C175.362 34.9907 174.33 34.999 173.297 35.0074C173.297 35.0074 172.953 35.0101 172.609 35.0129C172.609 35.0129 172.265 35.0157 172.268 35.3886C173.998 36.4933 173.998 36.4933 173.657 36.8689Z" fill="white"/>
</g>
<defs>
<clipPath id="clip0_86_413">
<rect width="410.829" height="47.5049" fill="white" transform="translate(0.250488 3.77136) rotate(-0.461919)"/>
</clipPath>
</defs>
</svg>
