<svg width="34" height="32" viewBox="0 0 34 32" fill="none" xmlns="http://www.w3.org/2000/svg">
<path d="M17.0002 20.4892C19.5757 20.4892 21.6635 18.4014 21.6635 15.8259C21.6635 13.2504 19.5757 11.1626 17.0002 11.1626C14.4248 11.1626 12.3369 13.2504 12.3369 15.8259C12.3369 18.4014 14.4248 20.4892 17.0002 20.4892Z" fill="#E63950"/>
<path d="M19.3252 11.7827C19.7195 12.4671 19.9451 13.2608 19.9451 14.1075C19.9451 16.683 17.8572 18.7708 15.2818 18.7708C14.4353 18.7708 13.6414 18.5451 12.957 18.1509C13.7623 19.5485 15.2715 20.4896 17.0006 20.4896C19.5761 20.4896 21.6639 18.4018 21.6639 15.8262C21.6637 14.0972 20.7229 12.5879 19.3252 11.7827Z" fill="#D10028"/>
<path d="M28.9543 20.4892C31.5298 20.4892 33.6176 18.4014 33.6176 15.8259C33.6176 13.2504 31.5298 11.1626 28.9543 11.1626C26.3789 11.1626 24.291 13.2504 24.291 15.8259C24.291 18.4014 26.3789 20.4892 28.9543 20.4892Z" fill="#F79219"/>
<path d="M31.2793 11.7827C31.6736 12.4671 31.8992 13.2608 31.8992 14.1075C31.8992 16.683 29.8113 18.7708 27.2359 18.7708C26.3894 18.7708 25.5955 18.5451 24.9111 18.1509C25.7164 19.5485 27.2256 20.4896 28.9547 20.4896C31.5302 20.4896 33.618 18.4018 33.618 15.8262C33.618 14.0972 32.677 12.5879 31.2793 11.7827Z" fill="#EF7816"/>
<path d="M5.04613 20.4892C7.6216 20.4892 9.70944 18.4014 9.70944 15.8259C9.70944 13.2504 7.6216 11.1626 5.04613 11.1626C2.47065 11.1626 0.382812 13.2504 0.382812 15.8259C0.382812 18.4014 2.47065 20.4892 5.04613 20.4892Z" fill="#F79219"/>
<path d="M7.37107 11.7827C7.76535 12.4671 7.99102 13.2608 7.99102 14.1075C7.99102 16.683 5.90309 18.7708 3.32771 18.7708C2.48123 18.7708 1.68734 18.5451 1.00293 18.1509C1.80816 19.5485 3.3174 20.4896 5.04646 20.4896C7.62201 20.4896 9.70977 18.4018 9.70977 15.8262C9.70977 14.0972 8.76876 12.5879 7.37107 11.7827Z" fill="#EF7816"/>
<path d="M17.0002 9.38717C19.5757 9.38717 21.6635 7.29934 21.6635 4.72386C21.6635 2.14838 19.5757 0.0605469 17.0002 0.0605469C14.4248 0.0605469 12.3369 2.14838 12.3369 4.72386C12.3369 7.29934 14.4248 9.38717 17.0002 9.38717Z" fill="#F79219"/>
<path d="M16.6174 31.3266C19.1929 31.3266 21.2807 29.2388 21.2807 26.6633C21.2807 24.0878 19.1929 22 16.6174 22C14.0419 22 11.9541 24.0878 11.9541 26.6633C11.9541 29.2388 14.0419 31.3266 16.6174 31.3266Z" fill="#F79219"/>
<path d="M19.3252 0.680664C19.7195 1.36507 19.9451 2.15879 19.9451 3.00545C19.9451 5.58099 17.8572 7.66876 15.2818 7.66876C14.4353 7.66876 13.6414 7.44326 12.957 7.04881C13.7624 8.44649 15.2715 9.38751 17.0006 9.38751C19.5761 9.38751 21.6639 7.29957 21.6639 4.7242C21.6637 2.99513 20.7229 1.4859 19.3252 0.680664Z" fill="#EF7816"/>
<path d="M18.9424 22.6201C19.3366 23.3045 19.5623 24.0982 19.5623 24.9449C19.5623 27.5204 17.4744 29.6082 14.899 29.6082C14.0525 29.6082 13.2586 29.3827 12.5742 28.9883C13.3796 30.3859 14.8887 31.327 16.6178 31.327C19.1933 31.327 21.2811 29.239 21.2811 26.6636C21.2809 24.9346 20.34 23.4254 18.9424 22.6201Z" fill="#EF7816"/>
<path d="M28.9543 9.38717C31.5298 9.38717 33.6176 7.29934 33.6176 4.72386C33.6176 2.14838 31.5298 0.0605469 28.9543 0.0605469C26.3789 0.0605469 24.291 2.14838 24.291 4.72386C24.291 7.29934 26.3789 9.38717 28.9543 9.38717Z" fill="#FFC91D"/>
<path d="M31.2793 0.680664C31.6736 1.36507 31.8992 2.15879 31.8992 3.00545C31.8992 5.58099 29.8113 7.66876 27.2359 7.66876C26.3894 7.66876 25.5955 7.44326 24.9111 7.04881C25.7165 8.44649 27.2256 9.38751 28.9547 9.38751C31.5302 9.38751 33.618 7.29957 33.618 4.7242C33.618 2.99513 32.677 1.4859 31.2793 0.680664Z" fill="#FFA91A"/>
<path d="M5.04613 9.38717C7.6216 9.38717 9.70944 7.29934 9.70944 4.72386C9.70944 2.14838 7.6216 0.0605469 5.04613 0.0605469C2.47065 0.0605469 0.382812 2.14838 0.382812 4.72386C0.382812 7.29934 2.47065 9.38717 5.04613 9.38717Z" fill="#FFC91D"/>
<path d="M7.37107 0.680664C7.76535 1.36507 7.99102 2.15879 7.99102 3.00545C7.99102 5.58099 5.90309 7.66876 3.32771 7.66876C2.48123 7.66876 1.68734 7.44326 1.00293 7.04881C1.80834 8.44649 3.3174 9.38751 5.04646 9.38751C7.62201 9.38751 9.70977 7.29957 9.70977 4.7242C9.70977 2.99513 8.76876 1.4859 7.37107 0.680664Z" fill="#FFA91A"/>
<path d="M28.5715 31.3266C31.147 31.3266 33.2348 29.2388 33.2348 26.6633C33.2348 24.0878 31.147 22 28.5715 22C25.996 22 23.9082 24.0878 23.9082 26.6633C23.9082 29.2388 25.996 31.3266 28.5715 31.3266Z" fill="#FFC91D"/>
<path d="M30.8965 22.6201C31.2907 23.3045 31.5164 24.0982 31.5164 24.9449C31.5164 27.5204 29.4285 29.6082 26.8531 29.6082C26.0066 29.6082 25.2127 29.3827 24.5283 28.9883C25.3337 30.3859 26.8428 31.327 28.5719 31.327C31.1474 31.327 33.2352 29.239 33.2352 26.6636C33.2352 24.9346 32.2942 23.4254 30.8965 22.6201Z" fill="#FFA91A"/>
<path d="M4.66331 31.3266C7.23879 31.3266 9.32663 29.2388 9.32663 26.6633C9.32663 24.0878 7.23879 22 4.66331 22C2.08784 22 0 24.0878 0 26.6633C0 29.2388 2.08784 31.3266 4.66331 31.3266Z" fill="#FFC91D"/>
<path d="M6.98826 22.6201C7.38254 23.3045 7.60821 24.0982 7.60821 24.9449C7.60821 27.5204 5.52027 29.6082 2.9449 29.6082C2.09841 29.6082 1.30452 29.3827 0.620117 28.9883C1.42552 30.3859 2.93459 31.327 4.66365 31.327C7.2392 31.327 9.32696 29.239 9.32696 26.6636C9.32696 24.9346 8.38595 23.4254 6.98826 22.6201Z" fill="#FFA91A"/>
</svg>
