<svg width="38" height="38" viewBox="0 0 38 38" fill="none" xmlns="http://www.w3.org/2000/svg">
<g clip-path="url(#clip0_297_6147)">
<path d="M33.9055 2.38477H4.09435C1.83669 2.38477 0 4.22153 0 6.47919V10.6527C0 11.2676 0.498453 11.766 1.11328 11.766H36.8867C37.5015 11.766 38 11.2676 38 10.6527V6.47919C38 4.22153 36.1632 2.38477 33.9055 2.38477Z" fill="#FF5B5B"/>
<path d="M33.9055 2.38477H19V11.766H36.8867C37.5015 11.766 38 11.2676 38 10.6527V6.47919C38 4.22153 36.1632 2.38477 33.9055 2.38477Z" fill="#FF0059"/>
<path d="M15.4229 6.99638C14.808 6.99638 14.3096 6.49792 14.3096 5.8831V1.11328C14.3096 0.498453 14.808 0 15.4229 0C16.0377 0 16.5361 0.498453 16.5361 1.11328V5.8831C16.5361 6.49792 16.0377 6.99638 15.4229 6.99638Z" fill="#C5E1E6"/>
<path d="M8.26758 6.99638C7.65275 6.99638 7.1543 6.49792 7.1543 5.8831V1.11328C7.1543 0.498453 7.65275 0 8.26758 0C8.88241 0 9.38086 0.498453 9.38086 1.11328V5.8831C9.38086 6.49792 8.88248 6.99638 8.26758 6.99638Z" fill="#C5E1E6"/>
<path d="M29.7324 6.99638C29.1176 6.99638 28.6191 6.49792 28.6191 5.8831V1.11328C28.6191 0.498453 29.1176 0 29.7324 0C30.3472 0 30.8457 0.498453 30.8457 1.11328V5.8831C30.8457 6.49792 30.3472 6.99638 29.7324 6.99638Z" fill="#8DB9C4"/>
<path d="M22.5771 6.99638C21.9623 6.99638 21.4639 6.49792 21.4639 5.8831V1.11328C21.4639 0.498453 21.9623 0 22.5771 0C23.192 0 23.6904 0.498453 23.6904 1.11328V5.8831C23.6904 6.49792 23.192 6.99638 22.5771 6.99638Z" fill="#8DB9C4"/>
<path d="M0 10.6528V33.9056C0 36.1632 1.83669 38 4.09435 38H33.9055C36.1632 38 38 36.1632 38 33.9056V10.6528H0Z" fill="#E7F0EF"/>
<path d="M19 38H33.9055C36.1632 38 38 36.1632 38 33.9056V10.6528H19V38Z" fill="#C5E1E6"/>
<path d="M11.2493 22.4983H6.47949C5.86466 22.4983 5.36621 21.9998 5.36621 21.385V16.6152C5.36621 16.0004 5.86466 15.502 6.47949 15.502H11.2494C11.8642 15.502 12.3627 16.0004 12.3627 16.6152V21.385C12.3626 21.9998 11.8642 22.4983 11.2493 22.4983ZM7.59277 20.2717H10.1361V17.7285H7.59277V20.2717Z" fill="#265C76"/>
<path d="M31.5207 22.4983H26.751C26.1361 22.4983 25.6377 21.9998 25.6377 21.385V16.6152C25.6377 16.0004 26.1361 15.502 26.751 15.502H31.5207C32.1355 15.502 32.634 16.0004 32.634 16.6152V21.385C32.634 21.9998 32.1355 22.4983 31.5207 22.4983ZM27.8643 20.2717H30.4075V17.7285H27.8643V20.2717Z" fill="#1D4659"/>
<path d="M11.2493 32.0378H6.47949C5.86466 32.0378 5.36621 31.5394 5.36621 30.9245V26.1548C5.36621 25.54 5.86466 25.0415 6.47949 25.0415H11.2494C11.8642 25.0415 12.3627 25.54 12.3627 26.1548V30.9245C12.3626 31.5394 11.8642 32.0378 11.2493 32.0378ZM7.59277 29.8112H10.1361V27.2681H7.59277V29.8112Z" fill="#265C76"/>
<path d="M31.5207 32.0378H26.751C26.1361 32.0378 25.6377 31.5394 25.6377 30.9245V26.1548C25.6377 25.54 26.1361 25.0415 26.751 25.0415H31.5207C32.1355 25.0415 32.634 25.54 32.634 26.1548V30.9245C32.634 31.5394 32.1355 32.0378 31.5207 32.0378ZM27.8643 29.8112H30.4075V27.2681H27.8643V29.8112Z" fill="#1D4659"/>
<path d="M21.3851 32.0378H16.6152C16.0004 32.0378 15.502 31.5394 15.502 30.9245V26.1548C15.502 25.54 16.0004 25.0415 16.6152 25.0415H21.3851C22 25.0415 22.4984 25.54 22.4984 26.1548V30.9245C22.4984 31.5394 22 32.0378 21.3851 32.0378ZM17.7285 29.8112H20.2718V27.2681H17.7285V29.8112Z" fill="#265C76"/>
<path d="M18.1571 21.7996C17.8618 21.7996 17.5787 21.6823 17.37 21.4735L15.6835 19.787C15.2487 19.3523 15.2487 18.6474 15.6835 18.2126C16.1182 17.7779 16.8231 17.7779 17.2579 18.2126L18.1571 19.1118L20.7425 16.5263C21.1772 16.0916 21.8822 16.0914 22.3169 16.5263C22.7517 16.961 22.7517 17.6658 22.3169 18.1007L18.9444 21.4734C18.7356 21.6823 18.4524 21.7996 18.1571 21.7996Z" fill="#54E360"/>
<path d="M21.3849 25.0415H19V27.2681H20.2716V29.8112H19V32.0378H21.3849C21.9997 32.0378 22.4982 31.5394 22.4982 30.9245V26.1548C22.4982 25.54 21.9997 25.0415 21.3849 25.0415Z" fill="#1D4659"/>
<path d="M22.3167 16.5263C21.882 16.0914 21.1771 16.0916 20.7423 16.5263L19 18.2686V21.4175L22.3167 18.1007C22.7515 17.6658 22.7515 16.961 22.3167 16.5263Z" fill="#00B44B"/>
</g>
<defs>
<clipPath id="clip0_297_6147">
<rect width="38" height="38" fill="white"/>
</clipPath>
</defs>
</svg>
