<svg width="46" height="46" viewBox="0 0 46 46" fill="none" xmlns="http://www.w3.org/2000/svg">
<path d="M9.96706 36.7998H39.8671V42.9331H9.96706C8.27426 42.9331 6.90039 41.5593 6.90039 39.8665C6.90039 38.1737 8.27426 36.7998 9.96706 36.7998Z" fill="#D4DDEE"/>
<path d="M5.36621 39.6903V6.13327C5.36621 3.16627 7.76588 0.766602 10.7329 0.766602L11.4995 1.53327V33.7333L10.7329 35.2666L5.36621 39.6903Z" fill="#1E719B"/>
<path d="M40.6334 2.29994V35.2666H10.7334V0.766602H39.1001C39.9434 0.766602 40.6334 1.4566 40.6334 2.29994Z" fill="#23B0E2"/>
<path d="M8.43288 39.9893C8.50188 41.2313 9.61354 42.1667 10.8555 42.1667H39.8662C40.2879 42.1667 40.6329 42.5117 40.6329 42.9333V44.4667C40.6329 44.8883 40.2879 45.2333 39.8662 45.2333H10.9552C7.96521 45.2333 5.38154 42.8413 5.36621 39.8667V39.6903C5.41221 38.272 6.00254 37.007 6.93788 36.0717C7.91155 35.098 9.24555 34.5 10.7329 34.5H40.6329V36.8C40.6329 37.2217 40.2879 37.5667 39.8662 37.5667H10.7329C9.42188 37.5667 8.37154 38.6553 8.43288 39.9893Z" fill="#1F97C1"/>
<path d="M26.4499 8.43343C27.5084 8.43343 28.3665 7.57531 28.3665 6.51676C28.3665 5.45822 27.5084 4.6001 26.4499 4.6001C25.3913 4.6001 24.5332 5.45822 24.5332 6.51676C24.5332 7.57531 25.3913 8.43343 26.4499 8.43343Z" fill="white"/>
<path d="M23.3689 14.211C23.3981 14.1236 23.4126 14.0316 23.4126 13.9396C23.4126 13.3891 22.899 12.9705 22.3646 13.1016C22.0388 13.1814 21.7513 13.2826 21.5412 13.3646C21.3434 13.4428 21.1218 13.3408 21.0544 13.1392L20.7186 12.131C20.6618 11.9616 20.7331 11.7776 20.8895 11.6917C21.4454 11.3843 22.8238 10.7334 24.5274 10.7334H24.5941C26.4103 10.7518 27.7075 12.5098 27.2667 14.2723L25.7241 19.5225C25.695 19.6099 25.6804 19.7019 25.6804 19.7939C25.6804 20.3443 26.1941 20.7629 26.7285 20.6318C27.0543 20.5521 27.3418 20.4509 27.5519 20.3689C27.7497 20.2907 27.9712 20.3926 28.0387 20.5943L28.3745 21.6024C28.4312 21.7719 28.3599 21.9559 28.2035 22.0417C27.6477 22.3492 26.2692 23.0001 24.5657 23.0001C24.5435 23.0001 24.5212 23.0001 24.499 23.0001C22.6828 22.9817 21.3856 21.2237 21.8264 19.4611L23.3689 14.211Z" fill="white"/>
<path d="M32.2004 26.8331H18.4005C17.9765 26.8331 17.6338 26.4904 17.6338 26.0665C17.6338 25.6425 17.9765 25.2998 18.4005 25.2998H32.2004C32.6244 25.2998 32.9671 25.6425 32.9671 26.0665C32.9671 26.4904 32.6244 26.8331 32.2004 26.8331Z" fill="#2682BC"/>
<path d="M29.1335 30.6666H21.4669C21.0429 30.6666 20.7002 30.3239 20.7002 29.9C20.7002 29.476 21.0429 29.1333 21.4669 29.1333H29.1335C29.5575 29.1333 29.9002 29.476 29.9002 29.9C29.9002 30.3239 29.5575 30.6666 29.1335 30.6666Z" fill="#2682BC"/>
</svg>
